<svg enable-background="new 0 0 407.096 407.096" height="407.096" viewBox="0 0 407.096 407.096" width="407.096" xmlns="http://www.w3.org/2000/svg"><path d="m17.005859 0c-9.3919996 0-17.005859 7.6148594-17.005859 17.005859v373.085941c0 9.392 7.6138594 17.0039 17.005859 17.0039h373.085941c9.392 0 17.0039-7.6119 17.0039-17.0039v-294.06055c0-4.509-1.79047-8.834438-4.98047-12.023438l-79.02734-79.0273432c-3.189-3.1890001-7.51439-4.9804688-12.02539-4.9804688zm50.123047 38.861328h233.535154v124.705082h-233.535154zm.000094 191.833672h272.838v109.272h-272.838z"/><path d="m214.051 148.16h43.08c3.131 0 5.668-2.538 5.668-5.669v-82.907c0-3.13-2.537-5.668-5.668-5.668h-43.08c-3.131 0-5.668 2.538-5.668 5.668v82.907c0 3.131 2.537 5.669 5.668 5.669z"/><path d="m65.85641 293.88696v-54.86946h142.4836 142.4836v54.86946 54.86947h-142.4836-142.4836z" fill="none" stroke-width=".884991"/></svg>